<svg width="150" height="150" viewBox="0 0 150 150" fill="none" xmlns="http://www.w3.org/2000/svg">
<rect width="150" height="150" rx="75" fill="black"/>
<circle cx="75.2051" cy="75.2061" r="50" fill="black" fill-opacity="0.25"/>
<path d="M100.634 109.183C104.681 109.824 106.152 114.687 102.732 116.944C92.6804 123.578 80.2172 126.623 67.3845 124.591C66.6212 124.47 66.4118 123.493 67.044 123.048L87.6568 108.555C88.7196 107.808 90.0316 107.504 91.3148 107.707L100.634 109.183Z" fill="white"/>
<path d="M83.028 25.8217C110.302 30.1415 128.91 55.7536 124.591 83.0279C123.419 90.4232 120.681 97.1799 116.769 103.016C114.76 106.013 110.411 105.318 108.961 102.014L92.0643 63.5186C90.2779 59.4487 84.4666 59.5583 82.835 63.6926L61.2789 118.312C60.307 120.775 57.5696 122.077 55.1436 121.017C34.7951 112.122 22.1856 90.3424 25.8218 67.3844C30.1416 40.1102 55.7537 21.5019 83.028 25.8217Z" fill="white"/>
</svg>
